<svg width="14" height="18" viewBox="0 0 14 18" fill="none" xmlns="http://www.w3.org/2000/svg">
<path d="M13.6673 6.44996C13.6586 6.3734 13.6419 6.29799 13.6173 6.22496V6.14996C13.5772 6.06428 13.5238 5.98551 13.459 5.91663L8.45898 0.916626C8.3901 0.851806 8.31133 0.79836 8.22565 0.758293H8.14232C8.06129 0.714962 7.9742 0.684061 7.88398 0.666626H2.83398C2.17094 0.666626 1.53506 0.930018 1.06622 1.39886C0.597377 1.8677 0.333984 2.50358 0.333984 3.16663V14.8333C0.333984 15.4963 0.597377 16.1322 1.06622 16.6011C1.53506 17.0699 2.17094 17.3333 2.83398 17.3333H11.1673C11.8304 17.3333 12.4662 17.0699 12.9351 16.6011C13.4039 16.1322 13.6673 15.4963 13.6673 14.8333V6.49996C13.6673 6.49996 13.6673 6.49996 13.6673 6.44996ZM8.66732 3.50829L10.8257 5.66663H9.50065C9.27964 5.66663 9.06767 5.57883 8.9114 5.42255C8.75511 5.26627 8.66732 5.05431 8.66732 4.83329V3.50829ZM12.0007 14.8333C12.0007 15.0543 11.9129 15.2663 11.7566 15.4225C11.6003 15.5788 11.3883 15.6666 11.1673 15.6666H2.83398C2.61297 15.6666 2.40101 15.5788 2.24473 15.4225C2.08845 15.2663 2.00065 15.0543 2.00065 14.8333V3.16663C2.00065 2.94561 2.08845 2.73365 2.24473 2.57737C2.40101 2.42109 2.61297 2.33329 2.83398 2.33329H7.00065V4.83329C7.00065 5.49633 7.26404 6.13222 7.73288 6.60106C8.20172 7.0699 8.83761 7.33329 9.50065 7.33329H12.0007V14.8333ZM8.07565 10.9083L7.83398 11.1583V8.99996C7.83398 8.77895 7.74619 8.56698 7.58991 8.4107C7.43363 8.25442 7.22166 8.16663 7.00065 8.16663C6.77964 8.16663 6.56768 8.25442 6.4114 8.4107C6.25511 8.56698 6.16732 8.77895 6.16732 8.99996V11.1583L5.92565 10.9083C5.76873 10.7514 5.5559 10.6632 5.33398 10.6632C5.11207 10.6632 4.89924 10.7514 4.74232 10.9083C4.5854 11.0652 4.49724 11.278 4.49724 11.5C4.49724 11.7219 4.5854 11.9347 4.74232 12.0916L6.40898 13.7583C6.48824 13.8342 6.58169 13.8936 6.68398 13.9333C6.78373 13.9774 6.89159 14.0002 7.00065 14.0002C7.10971 14.0002 7.21757 13.9774 7.31732 13.9333C7.41961 13.8936 7.51306 13.8342 7.59232 13.7583L9.25898 12.0916C9.4159 11.9347 9.50406 11.7219 9.50406 11.5C9.50406 11.278 9.4159 11.0652 9.25898 10.9083C9.10206 10.7514 8.88923 10.6632 8.66732 10.6632C8.4454 10.6632 8.23257 10.7514 8.07565 10.9083Z" fill="#35A4D9"/>
</svg>
