<svg width="18" height="18" viewBox="0 0 18 18" fill="none" xmlns="http://www.w3.org/2000/svg">
<path d="M11.266 6.32496L7.69102 9.90829L6.31602 8.53329C6.24131 8.44606 6.14938 8.37521 6.04599 8.32519C5.94261 8.27517 5.83 8.24706 5.71523 8.24263C5.60046 8.23819 5.48602 8.25753 5.37908 8.29943C5.27215 8.34132 5.17502 8.40487 5.09381 8.48608C5.0126 8.5673 4.94905 8.66442 4.90715 8.77136C4.86526 8.87829 4.84592 8.99274 4.85035 9.1075C4.85479 9.22227 4.88289 9.33488 4.93291 9.43827C4.98293 9.54166 5.05378 9.63359 5.14102 9.70829L7.09935 11.675C7.17722 11.7522 7.26957 11.8133 7.3711 11.8548C7.47263 11.8962 7.58135 11.9173 7.69102 11.9166C7.90964 11.9157 8.11914 11.8289 8.27435 11.675L12.441 7.50829C12.5191 7.43082 12.5811 7.33866 12.6234 7.23711C12.6657 7.13556 12.6875 7.02664 12.6875 6.91663C12.6875 6.80662 12.6657 6.69769 12.6234 6.59615C12.5811 6.4946 12.5191 6.40243 12.441 6.32496C12.2849 6.16975 12.0737 6.08263 11.8535 6.08263C11.6334 6.08263 11.4222 6.16975 11.266 6.32496ZM8.99935 0.666626C7.35118 0.666626 5.74001 1.15537 4.3696 2.07105C2.99919 2.98672 1.93109 4.28821 1.30036 5.81093C0.669626 7.33365 0.504599 9.0092 0.826142 10.6257C1.14769 12.2422 1.94136 13.7271 3.1068 14.8925C4.27223 16.058 5.75709 16.8516 7.3736 17.1732C8.99011 17.4947 10.6657 17.3297 12.1884 16.699C13.7111 16.0682 15.0126 15.0001 15.9283 13.6297C16.8439 12.2593 17.3327 10.6481 17.3327 8.99996C17.3327 7.90561 17.1171 6.82198 16.6983 5.81093C16.2796 4.79988 15.6657 3.88122 14.8919 3.1074C14.1181 2.33358 13.1994 1.71975 12.1884 1.30096C11.1773 0.882174 10.0937 0.666626 8.99935 0.666626ZM8.99935 15.6666C7.68081 15.6666 6.39188 15.2756 5.29555 14.5431C4.19922 13.8105 3.34474 12.7694 2.84016 11.5512C2.33557 10.333 2.20355 8.99256 2.46078 7.69936C2.71802 6.40615 3.35296 5.21826 4.28531 4.28591C5.21766 3.35356 6.40554 2.71863 7.69875 2.46139C8.99196 2.20416 10.3324 2.33618 11.5506 2.84076C12.7687 3.34535 13.8099 4.19983 14.5425 5.29616C15.275 6.39249 15.666 7.68142 15.666 8.99996C15.666 10.7681 14.9636 12.4638 13.7134 13.714C12.4632 14.9642 10.7675 15.6666 8.99935 15.6666Z" fill="#008000"/>
</svg>
