<svg width="18" height="14" viewBox="0 0 18 14" fill="none" xmlns="http://www.w3.org/2000/svg">
<path d="M17.3876 1.01257C17.2714 0.89541 17.1331 0.802416 16.9808 0.738956C16.8285 0.675495 16.6651 0.642822 16.5001 0.642822C16.335 0.642822 16.1717 0.675495 16.0193 0.738956C15.867 0.802416 15.7288 0.89541 15.6126 1.01257L6.30006 10.3376L2.38756 6.41257C2.26691 6.29602 2.12448 6.20438 1.96841 6.14287C1.81234 6.08137 1.64569 6.05121 1.47796 6.05411C1.31024 6.05701 1.14472 6.09292 0.990877 6.15979C0.837029 6.22665 0.697857 6.32317 0.581309 6.44382C0.464761 6.56447 0.373119 6.7069 0.311614 6.86297C0.250109 7.01904 0.219946 7.18569 0.222847 7.35342C0.225749 7.52114 0.261659 7.68665 0.328526 7.8405C0.395393 7.99435 0.491907 8.13352 0.612559 8.25007L5.41256 13.0501C5.52876 13.1672 5.66701 13.2602 5.81934 13.3237C5.97166 13.3871 6.13505 13.4198 6.30006 13.4198C6.46507 13.4198 6.62846 13.3871 6.78078 13.3237C6.9331 13.2602 7.07136 13.1672 7.18756 13.0501L17.3876 2.85007C17.5144 2.73302 17.6157 2.59095 17.685 2.43283C17.7542 2.2747 17.79 2.10395 17.79 1.93132C17.79 1.75869 17.7542 1.58794 17.685 1.42981C17.6157 1.27169 17.5144 1.12962 17.3876 1.01257Z" fill="#008000"/>
</svg>
