<svg width="72" height="62" viewBox="0 0 72 62" fill="none" xmlns="http://www.w3.org/2000/svg">
<path d="M4.44412 13.5166C4.32404 13.5167 4.20892 13.5649 4.12401 13.6506C4.03911 13.7363 3.99135 13.8524 3.99121 13.9736V61.2266C3.99134 61.3478 4.0391 61.464 4.12401 61.5497C4.20892 61.6353 4.32403 61.6835 4.44412 61.6837H63.1617C63.2818 61.6835 63.3969 61.6353 63.4818 61.5497C63.5667 61.464 63.6144 61.3478 63.6145 61.2266V21.5587C63.6144 21.4375 63.5667 21.3214 63.4818 21.2357C63.3969 21.15 63.2818 21.1018 63.1617 21.1016H29.4616C29.1195 21.1019 28.7897 20.9733 28.5366 20.741L20.9604 13.7952C20.7649 13.6157 20.5101 13.5164 20.2459 13.5166H4.44412Z" fill="#1A54BC"/>
<path d="M31.5622 7.41117C31.4888 7.36779 31.4014 7.35554 31.319 7.3771C31.2367 7.39867 31.1663 7.4523 31.1231 7.52623L13.7345 37.3824C13.6915 37.4565 13.6794 37.5447 13.7007 37.6277C13.7221 37.7108 13.7753 37.7819 13.8485 37.8254L37.6864 51.9598C37.7598 52.0032 37.8472 52.0155 37.9295 51.9939C38.0118 51.9723 38.0823 51.9187 38.1254 51.8448L55.514 21.9886C55.557 21.9146 55.5692 21.8264 55.5478 21.7433C55.5264 21.6603 55.4733 21.5891 55.4 21.5456L31.5622 7.41117Z" fill="#E6E6E6"/>
<path d="M31.9264 8.82817C31.853 8.78478 31.7656 8.77253 31.6833 8.7941C31.601 8.81567 31.5305 8.8693 31.4873 8.94322L15.1388 37.0136C15.0958 37.0876 15.0837 37.1759 15.105 37.2589C15.1264 37.342 15.1796 37.4131 15.2528 37.4566L37.3208 50.5416C37.3942 50.585 37.4816 50.5973 37.5639 50.5757C37.6463 50.5541 37.7167 50.5005 37.7599 50.4266L54.1084 22.3562C54.1514 22.2821 54.1636 22.1939 54.1422 22.1109C54.1208 22.0278 54.0677 21.9567 53.9944 21.9132L31.9264 8.82817Z" fill="white"/>
<path d="M27.7575 22.6944L44.0182 32.336C44.0727 32.3683 44.1329 32.3895 44.1955 32.3983C44.2581 32.4071 44.3217 32.4034 44.3829 32.3874C44.4441 32.3713 44.5015 32.3433 44.5519 32.3049C44.6023 32.2665 44.6448 32.2184 44.6768 32.1634C44.7088 32.1085 44.7297 32.0477 44.7385 31.9845C44.7472 31.9214 44.7435 31.8571 44.7276 31.7954C44.7118 31.7337 44.684 31.6758 44.6459 31.6249C44.6078 31.574 44.5602 31.5312 44.5057 31.4989L28.2451 21.8573C28.1906 21.8249 28.1303 21.8037 28.0677 21.7948C28.0051 21.7859 27.9413 21.7895 27.8801 21.8055C27.8189 21.8215 27.7614 21.8495 27.7109 21.888C27.6604 21.9264 27.6179 21.9745 27.5859 22.0295C27.5538 22.0846 27.5328 22.1454 27.5241 22.2086C27.5154 22.2718 27.5191 22.3362 27.5351 22.3979C27.551 22.4597 27.5789 22.5176 27.6171 22.5685C27.6552 22.6194 27.703 22.6622 27.7575 22.6944V22.6944Z" fill="#E6E6E6"/>
<path d="M32.16 14.8127L42.9478 21.2092C43.0998 21.2994 43.3322 21.185 43.4668 20.9539C43.6014 20.7227 43.5873 20.4623 43.4353 20.3722L32.6475 13.9756C32.4955 13.8855 32.2632 13.9998 32.1286 14.231C31.994 14.4622 32.008 14.7226 32.16 14.8127Z" fill="#E6E6E6"/>
<path d="M30.7626 17.2121L41.5504 23.6087C41.7023 23.6988 41.9347 23.5844 42.0693 23.3533C42.2039 23.1221 42.1899 22.8617 42.0379 22.7716L31.2501 16.375C31.0981 16.2849 30.8657 16.3993 30.7311 16.6304C30.5965 16.8616 30.6105 17.122 30.7626 17.2121Z" fill="#E6E6E6"/>
<path d="M26.1813 25.4014L42.442 35.0429C42.552 35.108 42.6831 35.1264 42.8065 35.094C42.9299 35.0616 43.0356 34.9811 43.1002 34.8701C43.1648 34.7592 43.1831 34.6269 43.1511 34.5023C43.1191 34.3778 43.0394 34.2711 42.9295 34.2058L26.6689 24.5643C26.5589 24.4992 26.4277 24.4808 26.3043 24.5132C26.1809 24.5456 26.0753 24.6261 26.0107 24.7371C25.946 24.848 25.9277 24.9803 25.9597 25.1049C25.9917 25.2294 26.0714 25.3361 26.1813 25.4014Z" fill="#E6E6E6"/>
<path d="M24.6036 28.1076L40.8642 37.7492C40.9742 37.8143 41.1054 37.8327 41.2288 37.8003C41.3522 37.7679 41.4578 37.6873 41.5224 37.5764C41.587 37.4655 41.6054 37.3332 41.5734 37.2086C41.5414 37.0841 41.4616 36.9774 41.3517 36.9121L25.0911 27.2705C25.0366 27.2382 24.9764 27.2171 24.9138 27.2083C24.8512 27.1995 24.7876 27.2032 24.7264 27.2192C24.6652 27.2352 24.6078 27.2633 24.5574 27.3017C24.507 27.3401 24.4645 27.3882 24.4325 27.4431C24.4005 27.4981 24.3796 27.5589 24.3708 27.622C24.3621 27.6852 24.3658 27.7494 24.3817 27.8111C24.3975 27.8728 24.4253 27.9308 24.4634 27.9816C24.5015 28.0325 24.5491 28.0753 24.6036 28.1076V28.1076Z" fill="#E6E6E6"/>
<path d="M23.0274 30.8146L39.288 40.4562C39.3981 40.5212 39.5291 40.5395 39.6525 40.5071C39.7758 40.4747 39.8814 40.3942 39.946 40.2833C40.0106 40.1724 40.0289 40.0401 39.9969 39.9156C39.965 39.7911 39.8854 39.6845 39.7756 39.6191L23.5149 29.9776C23.4605 29.9453 23.4002 29.9241 23.3376 29.9153C23.2751 29.9065 23.2114 29.9102 23.1502 29.9262C23.0891 29.9423 23.0316 29.9703 22.9812 30.0087C22.9308 30.0471 22.8884 30.0952 22.8564 30.1501C22.8243 30.2051 22.8034 30.2659 22.7947 30.329C22.7859 30.3922 22.7896 30.4564 22.8055 30.5181C22.8214 30.5798 22.8491 30.6378 22.8872 30.6887C22.9253 30.7395 22.9729 30.7824 23.0274 30.8147V30.8146Z" fill="#E6E6E6"/>
<path d="M21.4512 33.5207L37.7119 43.1623C37.7663 43.1946 37.8266 43.2158 37.8892 43.2246C37.9517 43.2334 38.0154 43.2296 38.0766 43.2136C38.1377 43.1976 38.1952 43.1696 38.2456 43.1312C38.296 43.0927 38.3384 43.0447 38.3705 42.9897C38.4025 42.9347 38.4234 42.874 38.4322 42.8108C38.4409 42.7477 38.4372 42.6834 38.4213 42.6217C38.4054 42.56 38.3777 42.5021 38.3396 42.4512C38.3015 42.4003 38.2539 42.3575 38.1994 42.3252L21.9388 32.6836C21.8288 32.6184 21.6976 32.5999 21.5741 32.6323C21.4505 32.6647 21.3448 32.7452 21.2802 32.8562C21.2155 32.9672 21.1972 33.0996 21.2293 33.2242C21.2614 33.3488 21.3412 33.4555 21.4512 33.5207Z" fill="#E6E6E6"/>
<path d="M19.8751 36.2272L36.1357 45.8688C36.2457 45.9341 36.3769 45.9525 36.5004 45.9202C36.6239 45.8878 36.7296 45.8073 36.7943 45.6962C36.8589 45.5852 36.8772 45.4529 36.8452 45.3283C36.8131 45.2036 36.7333 45.097 36.6232 45.0317L20.3626 35.3902C20.3081 35.3579 20.2479 35.3367 20.1853 35.3279C20.1227 35.3191 20.059 35.3228 19.9979 35.3388C19.9367 35.3549 19.8793 35.3829 19.8289 35.4213C19.7785 35.4597 19.736 35.5078 19.704 35.5627C19.672 35.6177 19.651 35.6785 19.6423 35.7416C19.6336 35.8048 19.6373 35.869 19.6531 35.9307C19.669 35.9924 19.6968 36.0504 19.7349 36.1013C19.773 36.1521 19.8206 36.1949 19.8751 36.2272Z" fill="#E6E6E6"/>
<path d="M46.3182 26.8538C47.7176 26.8538 48.8521 25.7091 48.8521 24.297C48.8521 22.8849 47.7176 21.7402 46.3182 21.7402C44.9187 21.7402 43.7842 22.8849 43.7842 24.297C43.7842 25.7091 44.9187 26.8538 46.3182 26.8538Z" fill="#E6E6E6"/>
<path d="M11.3312 16.009C11.248 15.9912 11.1612 16.0075 11.0899 16.0542C11.0185 16.1009 10.9685 16.1743 10.9507 16.2582L3.81066 50.1303C3.79307 50.2143 3.80919 50.3018 3.8555 50.3738C3.9018 50.4458 3.97451 50.4963 4.05767 50.5142L31.1019 56.318C31.1851 56.3358 31.2719 56.3195 31.3432 56.2728C31.4145 56.2261 31.4646 56.1527 31.4824 56.0688L38.6224 22.1967C38.64 22.1127 38.6239 22.0252 38.5776 21.9532C38.5313 21.8812 38.4586 21.8307 38.3754 21.8128L11.3312 16.009Z" fill="#E6E6E6"/>
<path d="M12.1219 17.237C12.0387 17.2192 11.9519 17.2355 11.8806 17.2822C11.8092 17.329 11.7592 17.4023 11.7414 17.4862L5.02843 49.3323C5.01084 49.4163 5.02696 49.5038 5.07327 49.5758C5.11958 49.6478 5.19228 49.6983 5.27544 49.7162L30.3118 55.0892C30.395 55.1069 30.4818 55.0906 30.5531 55.0439C30.6244 54.9972 30.6745 54.9238 30.6923 54.8399L37.4052 22.9938C37.4228 22.9099 37.4067 22.8223 37.3604 22.7503C37.3141 22.6784 37.2414 22.6279 37.1582 22.6099L12.1219 17.237Z" fill="white"/>
<path d="M30.9586 35.6817L12.5108 31.7227C12.4489 31.7095 12.3902 31.6842 12.338 31.6481C12.2858 31.612 12.2412 31.5659 12.2067 31.5124C12.1722 31.4589 12.1485 31.399 12.137 31.3363C12.1254 31.2735 12.1263 31.2091 12.1394 31.1467C12.1526 31.0842 12.1778 31.025 12.2137 30.9725C12.2495 30.9199 12.2953 30.875 12.3484 30.8403C12.4015 30.8055 12.4608 30.7817 12.5231 30.7702C12.5853 30.7587 12.6491 30.7596 12.711 30.773L31.1588 34.732C31.2207 34.7452 31.2794 34.7705 31.3316 34.8066C31.3838 34.8427 31.4284 34.8888 31.4629 34.9423C31.4974 34.9958 31.5211 35.0556 31.5326 35.1184C31.5442 35.1812 31.5433 35.2456 31.5302 35.308C31.517 35.3704 31.4918 35.4296 31.4559 35.4822C31.4201 35.5348 31.3743 35.5797 31.3212 35.6144C31.2681 35.6491 31.2088 35.6729 31.1465 35.6845C31.0843 35.696 31.0205 35.6951 30.9586 35.6817Z" fill="#E6E6E6"/>
<path d="M32.9823 26.8681L20.7435 24.2416C20.5711 24.2046 20.4761 23.962 20.5314 23.6997C20.5866 23.4375 20.7712 23.2549 20.9437 23.2919L33.1825 25.9184C33.355 25.9554 33.4499 26.198 33.3946 26.4602C33.3394 26.7225 33.1548 26.9051 32.9823 26.8681Z" fill="#E6E6E6"/>
<path d="M32.4081 29.5902L20.1693 26.9637C19.9968 26.9267 19.9019 26.6841 19.9571 26.4219C20.0124 26.1596 20.197 25.977 20.3695 26.014L32.6083 28.6406C32.7808 28.6776 32.8757 28.9202 32.8204 29.1824C32.7652 29.4447 32.5806 29.6273 32.4081 29.5902Z" fill="#E6E6E6"/>
<path d="M30.3114 38.7526L11.8636 34.7936C11.739 34.7666 11.6301 34.6909 11.5608 34.583C11.4914 34.475 11.4674 34.3438 11.4939 34.218C11.5204 34.0922 11.5953 33.9821 11.7022 33.912C11.809 33.8419 11.9391 33.8174 12.0638 33.8439L30.5116 37.8029C30.5734 37.8162 30.632 37.8416 30.6841 37.8777C30.7362 37.9138 30.7807 37.9599 30.8151 38.0134C30.8495 38.0669 30.8731 38.1267 30.8846 38.1894C30.8961 38.2521 30.8953 38.3164 30.8822 38.3788C30.869 38.4411 30.8438 38.5003 30.808 38.5528C30.7722 38.6053 30.7265 38.6502 30.6735 38.685C30.6205 38.7197 30.5613 38.7435 30.4992 38.7551C30.437 38.7667 30.3732 38.7659 30.3114 38.7526Z" fill="#E6E6E6"/>
<path d="M29.665 41.8229L11.2171 37.8639C11.0925 37.837 10.9836 37.7612 10.9143 37.6533C10.845 37.5453 10.8209 37.4141 10.8474 37.2883C10.874 37.1625 10.9489 37.0525 11.0557 36.9823C11.1625 36.9122 11.2926 36.8877 11.4173 36.9143L29.8651 40.8732C29.9269 40.8865 29.9855 40.9119 30.0376 40.948C30.0897 40.9842 30.1342 41.0303 30.1686 41.0837C30.203 41.1372 30.2266 41.197 30.2381 41.2597C30.2496 41.3224 30.2488 41.3867 30.2357 41.4491C30.2225 41.5114 30.1973 41.5706 30.1615 41.6231C30.1257 41.6756 30.08 41.7206 30.027 41.7553C29.974 41.79 29.9148 41.8138 29.8527 41.8254C29.7905 41.837 29.7268 41.8362 29.665 41.8229Z" fill="#E6E6E6"/>
<path d="M29.0182 44.8931L10.5704 40.9341C10.5085 40.921 10.4497 40.8956 10.3976 40.8595C10.3454 40.8234 10.3008 40.7773 10.2663 40.7238C10.2318 40.6703 10.2081 40.6105 10.1966 40.5477C10.185 40.485 10.1858 40.4205 10.199 40.3581C10.2122 40.2957 10.2374 40.2365 10.2733 40.1839C10.3091 40.1313 10.3549 40.0864 10.408 40.0517C10.4611 40.017 10.5204 39.9932 10.5826 39.9816C10.6448 39.9701 10.7087 39.971 10.7705 39.9844L29.2184 43.9434C29.343 43.9704 29.4519 44.0462 29.5212 44.1541C29.5905 44.262 29.6146 44.3933 29.5881 44.5191C29.5615 44.6449 29.4866 44.7549 29.3798 44.825C29.273 44.8952 29.1429 44.9196 29.0182 44.8931Z" fill="#E6E6E6"/>
<path d="M28.3698 47.9644L9.92192 44.0054C9.86002 43.9922 9.80131 43.9669 9.74913 43.9308C9.69696 43.8947 9.65235 43.8486 9.61786 43.7951C9.58337 43.7416 9.55967 43.6818 9.54812 43.619C9.53658 43.5563 9.53741 43.4918 9.55057 43.4294C9.56373 43.367 9.58896 43.3078 9.62481 43.2552C9.66067 43.2026 9.70646 43.1577 9.75954 43.123C9.81263 43.0883 9.87197 43.0645 9.93419 43.0529C9.9964 43.0414 10.0603 43.0423 10.1221 43.0557L28.5699 47.0147C28.6318 47.0279 28.6906 47.0532 28.7427 47.0893C28.7949 47.1254 28.8395 47.1715 28.874 47.225C28.9085 47.2785 28.9322 47.3384 28.9437 47.4011C28.9553 47.4639 28.9545 47.5283 28.9413 47.5907C28.9281 47.6532 28.9029 47.7124 28.8671 47.7649C28.8312 47.8175 28.7854 47.8624 28.7323 47.8972C28.6792 47.9319 28.6199 47.9557 28.5577 47.9672C28.4955 47.9787 28.4316 47.9778 28.3698 47.9644Z" fill="#E6E6E6"/>
<path d="M27.7226 51.0348L9.27474 47.0758C9.15012 47.0489 9.0412 46.9731 8.97189 46.8652C8.90258 46.7573 8.87854 46.626 8.90506 46.5002C8.93158 46.3744 9.00647 46.2644 9.11332 46.1942C9.22016 46.1241 9.35021 46.0996 9.47492 46.1262L27.9228 50.0852C27.9847 50.0983 28.0434 50.1237 28.0955 50.1598C28.1477 50.1959 28.1923 50.242 28.2268 50.2955C28.2613 50.349 28.285 50.4088 28.2966 50.4716C28.3081 50.5343 28.3073 50.5987 28.2941 50.6612C28.281 50.7236 28.2557 50.7828 28.2199 50.8354C28.184 50.888 28.1382 50.9329 28.0851 50.9676C28.032 51.0023 27.9727 51.0261 27.9105 51.0376C27.8483 51.0492 27.7844 51.0482 27.7226 51.0348Z" fill="#E6E6E6"/>
<path d="M16.1912 26.7806C17.5907 26.7806 18.7252 25.6358 18.7252 24.2238C18.7252 22.8117 17.5907 21.667 16.1912 21.667C14.7917 21.667 13.6572 22.8117 13.6572 24.2238C13.6572 25.6358 14.7917 26.7806 16.1912 26.7806Z" fill="#E6E6E6"/>
<path d="M48.5009 0.0501778C48.429 0.00431333 48.3421 -0.0109182 48.2591 0.00782978C48.1761 0.0265777 48.1039 0.0777749 48.0583 0.150184L29.6786 29.3958C29.6332 29.4683 29.6181 29.556 29.6367 29.6398C29.6552 29.7235 29.706 29.7964 29.7778 29.8424L53.1281 44.7824C53.1999 44.8282 53.2869 44.8435 53.3699 44.8247C53.4529 44.806 53.5251 44.7548 53.5707 44.6824L71.9504 15.4368C71.9958 15.3643 72.0109 15.2765 71.9923 15.1928C71.9737 15.1091 71.923 15.0362 71.8512 14.9902L48.5009 0.0501778Z" fill="#2573FF"/>
<path d="M48.8176 1.47987C48.7457 1.434 48.6588 1.41877 48.5758 1.43752C48.4928 1.45627 48.4206 1.50746 48.3749 1.57987L31.0947 29.0762C31.0492 29.1487 31.0341 29.2365 31.0527 29.3202C31.0713 29.4039 31.122 29.4768 31.1938 29.5228L52.8104 43.3536C52.8823 43.3994 52.9693 43.4147 53.0523 43.3959C53.1353 43.3772 53.2075 43.326 53.2531 43.2536L70.5334 15.7573C70.5788 15.6847 70.5939 15.597 70.5754 15.5133C70.5568 15.4295 70.506 15.3567 70.4343 15.3106L48.8176 1.47987Z" fill="white"/>
<path d="M60.1145 25.3868L44.1864 15.1957C44.133 15.1616 44.0868 15.1172 44.0505 15.065C44.0141 15.0129 43.9883 14.954 43.9745 14.8918C43.9607 14.8296 43.9592 14.7653 43.97 14.7025C43.9809 14.6397 44.0039 14.5796 44.0377 14.5258C44.0715 14.4719 44.1156 14.4254 44.1672 14.3887C44.2189 14.352 44.2772 14.326 44.3389 14.312C44.4006 14.2981 44.4643 14.2966 44.5266 14.3075C44.5888 14.3184 44.6483 14.3416 44.7017 14.3758L60.6298 24.5669C60.6831 24.601 60.7293 24.6454 60.7656 24.6976C60.802 24.7497 60.8278 24.8086 60.8416 24.8708C60.8554 24.933 60.857 24.9973 60.8461 25.0601C60.8353 25.1229 60.8123 25.183 60.7784 25.2368C60.7446 25.2907 60.7006 25.3372 60.6489 25.3739C60.5972 25.4106 60.5389 25.4366 60.4772 25.4506C60.4156 25.4645 60.3518 25.466 60.2896 25.4551C60.2273 25.4442 60.1678 25.421 60.1145 25.3868Z" fill="#2573FF"/>
<path d="M65.0525 17.8347L54.4854 11.0736C54.3365 10.9784 54.3311 10.7176 54.4734 10.4912C54.6157 10.2648 54.8518 10.1584 55.0007 10.2537L65.5679 17.0147C65.7167 17.11 65.7221 17.3708 65.5798 17.5972C65.4375 17.8236 65.2014 17.93 65.0525 17.8347Z" fill="#2573FF"/>
<path d="M63.574 20.1848L53.0068 13.4237C52.858 13.3285 52.8526 13.0677 52.9949 12.8413C53.1372 12.6148 53.3733 12.5085 53.5222 12.6038L64.0893 19.3648C64.2382 19.4601 64.2435 19.7209 64.1012 19.9473C63.9589 20.1737 63.7229 20.2801 63.574 20.1848Z" fill="#2573FF"/>
<path d="M58.4479 28.0383L42.5198 17.8473C42.4122 17.7782 42.3362 17.6689 42.3084 17.5434C42.2807 17.4178 42.3034 17.2863 42.3717 17.1776C42.44 17.069 42.5482 16.9921 42.6726 16.964C42.797 16.9358 42.9274 16.9585 43.0351 17.0273L58.9632 27.2184C59.0166 27.2525 59.0627 27.2969 59.0991 27.3491C59.1354 27.4012 59.1613 27.4601 59.1751 27.5223C59.1889 27.5845 59.1904 27.6488 59.1796 27.7116C59.1687 27.7744 59.1457 27.8345 59.1119 27.8883C59.078 27.9422 59.034 27.9888 58.9824 28.0254C58.9307 28.0621 58.8723 28.0882 58.8107 28.1021C58.749 28.116 58.6853 28.1176 58.623 28.1066C58.5608 28.0957 58.5013 28.0725 58.4479 28.0383H58.4479Z" fill="#2573FF"/>
<path d="M56.7809 30.6887L40.8528 20.4976C40.7452 20.4286 40.6692 20.3193 40.6414 20.1938C40.6137 20.0682 40.6364 19.9367 40.7047 19.828C40.773 19.7194 40.8812 19.6425 41.0056 19.6143C41.13 19.5861 41.2604 19.6089 41.3681 19.6777L57.2962 29.8688C57.3497 29.9029 57.3959 29.9473 57.4324 29.9994C57.4688 30.0516 57.4947 30.1104 57.5085 30.1727C57.5224 30.235 57.524 30.2994 57.5131 30.3622C57.5023 30.4251 57.4793 30.4852 57.4454 30.5391C57.4116 30.593 57.3675 30.6396 57.3158 30.6763C57.264 30.713 57.2056 30.739 57.1439 30.7529C57.0822 30.7668 57.0184 30.7683 56.9561 30.7573C56.8938 30.7463 56.8343 30.723 56.7809 30.6887Z" fill="#2573FF"/>
<path d="M55.115 33.3398L39.1869 23.1487C39.1335 23.1146 39.0872 23.0702 39.0508 23.0181C39.0143 22.9659 38.9884 22.907 38.9746 22.8448C38.9607 22.7825 38.9592 22.7181 38.97 22.6553C38.9808 22.5924 39.0038 22.5323 39.0377 22.4784C39.0716 22.4245 39.1156 22.3779 39.1674 22.3412C39.2191 22.3045 39.2775 22.2785 39.3392 22.2646C39.4009 22.2507 39.4648 22.2492 39.527 22.2602C39.5893 22.2712 39.6489 22.2945 39.7022 22.3288L55.6303 32.5198C55.7379 32.5889 55.8139 32.6982 55.8417 32.8237C55.8695 32.9493 55.8467 33.0808 55.7784 33.1895C55.7102 33.2981 55.6019 33.375 55.4775 33.4031C55.3531 33.4313 55.2228 33.4086 55.115 33.3398Z" fill="#2573FF"/>
<path d="M53.4494 35.9913L37.5213 25.8002C37.4136 25.7313 37.3374 25.622 37.3095 25.4963C37.2816 25.3707 37.3043 25.239 37.3727 25.1303C37.441 25.0215 37.5493 24.9446 37.6739 24.9165C37.7984 24.8884 37.9289 24.9113 38.0366 24.9803L53.9647 35.1714C54.0723 35.2404 54.1483 35.3497 54.1761 35.4752C54.2039 35.6008 54.1811 35.7323 54.1129 35.841C54.0446 35.9496 53.9364 36.0265 53.812 36.0547C53.6876 36.0828 53.5572 36.0601 53.4494 35.9913Z" fill="#2573FF"/>
<path d="M51.7834 38.6432L35.8553 28.4521C35.802 28.4179 35.7558 28.3735 35.7194 28.3214C35.6831 28.2693 35.6573 28.2104 35.6435 28.1482C35.6297 28.086 35.6281 28.0216 35.639 27.9588C35.6498 27.896 35.6728 27.836 35.7066 27.7821C35.7405 27.7283 35.7845 27.6817 35.8362 27.645C35.8879 27.6083 35.9462 27.5823 36.0078 27.5684C36.0695 27.5544 36.1333 27.5529 36.1955 27.5638C36.2578 27.5748 36.3173 27.598 36.3706 27.6321L52.2987 37.8232C52.4065 37.8922 52.4827 38.0015 52.5106 38.1271C52.5384 38.2528 52.5157 38.3844 52.4474 38.4932C52.3791 38.6019 52.2707 38.6788 52.1462 38.7069C52.0217 38.7351 51.8912 38.7121 51.7834 38.6432Z" fill="#2573FF"/>
<path d="M50.2225 12.0149C51.6219 12.0149 52.7564 10.8702 52.7564 9.45815C52.7564 8.04608 51.6219 6.90137 50.2225 6.90137C48.823 6.90137 47.6885 8.04608 47.6885 9.45815C47.6885 10.8702 48.823 12.0149 50.2225 12.0149Z" fill="#2573FF"/>
<path d="M0.452929 25.928C0.38917 25.928 0.326129 25.9415 0.267928 25.9678C0.209728 25.9941 0.157679 26.0325 0.115192 26.0804C0.0727052 26.1284 0.0407391 26.1849 0.0213799 26.2462C0.0020207 26.3075 -0.00429292 26.3722 0.00285355 26.4361L3.92901 61.5941C3.94141 61.7058 3.99418 61.8089 4.07722 61.8838C4.16025 61.9586 4.26773 62 4.37909 61.9999H63.2261C63.3375 62 63.445 61.9587 63.528 61.8838C63.611 61.8089 63.6638 61.7058 63.6762 61.5941L67.6023 26.4361C67.6094 26.3722 67.6031 26.3075 67.5838 26.2462C67.5644 26.1849 67.5325 26.1284 67.49 26.0804C67.4478 26.0322 67.3958 25.9937 67.3375 25.9674C67.2793 25.9411 67.2161 25.9277 67.1523 25.928H0.452929Z" fill="#2573FF"/>
<path d="M5.80698 31.8328L24.6672 31.7297C24.7946 31.7288 24.9165 31.6769 25.0061 31.5854C25.0956 31.4938 25.1455 31.3702 25.1449 31.2416C25.1442 31.113 25.0929 30.9899 25.0024 30.8994C24.9119 30.8089 24.7894 30.7583 24.662 30.7588L5.80177 30.8619C5.67417 30.8625 5.55206 30.9144 5.46232 31.0059C5.37258 31.0974 5.32256 31.2212 5.32325 31.3499C5.32394 31.4787 5.37529 31.6019 5.46601 31.6924C5.55672 31.783 5.67938 31.8335 5.80698 31.8328Z" fill="white"/>
<path d="M5.80698 34.8347L16.9937 34.7317C17.1211 34.7307 17.243 34.6788 17.3325 34.5873C17.4221 34.4958 17.472 34.3722 17.4713 34.2436C17.4706 34.115 17.4194 33.9919 17.3289 33.9014C17.2383 33.8109 17.1159 33.7603 16.9884 33.7607L5.80177 33.8638C5.67417 33.8645 5.55206 33.9163 5.46232 34.0078C5.37258 34.0994 5.32256 34.2231 5.32325 34.3519C5.32394 34.4806 5.37529 34.6038 5.46601 34.6944C5.55672 34.7849 5.67938 34.8354 5.80698 34.8347Z" fill="white"/>
</svg>
