<svg width="93" height="45" viewBox="0 0 93 45" fill="none" xmlns="http://www.w3.org/2000/svg">
<g clip-path="url(#clip0_797_68899)">
<path d="M34.9321 41.5127L32.3661 13.0031C32.2952 12.2233 31.6431 11.6279 30.8634 11.6279H25.5896V9.24621C25.5896 4.80886 21.9745 1.19376 17.5372 1.19376C13.0998 1.19376 9.48472 4.80886 9.48472 9.24621V11.6279H4.19677C3.41704 11.6279 2.76491 12.2233 2.69402 13.0031L0.142193 41.6261C0.0996629 42.0514 0.241431 42.4625 0.524967 42.7744C0.808504 43.0863 1.21963 43.2706 1.64494 43.2706H33.4436C34.28 43.2706 34.9605 42.5901 34.9605 41.7537C34.9605 41.6828 34.9463 41.5977 34.9321 41.5127ZM12.5186 9.24621C12.5186 6.46755 14.7727 4.21343 17.5513 4.21343C20.33 4.21343 22.5841 6.46755 22.5841 9.24621V11.6279H12.5327V9.24621H12.5186ZM3.28945 40.2509L5.5861 14.6476H9.4989V17.3554C9.4989 18.1918 10.1794 18.8723 11.0158 18.8723C11.8523 18.8723 12.5327 18.1918 12.5327 17.3554V14.6476H22.5841V17.3554C22.5841 18.1918 23.2646 18.8723 24.101 18.8723C24.9375 18.8723 25.618 18.1918 25.618 17.3554V14.6476H29.4882L31.7849 40.2509H3.28945Z" fill="#1D3784"/>
<path d="M3.96929 13.4852C12.8582 13.4285 21.747 13.3859 30.6359 13.3292C31.444 22.7285 32.2662 32.1277 33.0743 41.527C22.5268 41.4702 11.9792 41.4277 1.43164 41.371C2.26807 32.071 3.11868 22.771 3.96929 13.4852Z" fill="#1D3784"/>
<path d="M39.8093 43.215C38.7318 42.9598 37.8529 42.6196 37.1582 42.1943L38.6468 38.8344C39.2989 39.2171 40.0219 39.5149 40.83 39.7417C41.6381 39.9685 42.4178 40.0819 43.155 40.0819C43.793 40.0819 44.2466 40.0252 44.516 39.8976C44.7853 39.77 44.9271 39.5858 44.9271 39.3447C44.9271 39.0612 44.7428 38.8486 44.3884 38.7068C44.034 38.565 43.4385 38.4091 42.6163 38.2389C41.5672 38.0121 40.6882 37.7853 39.9794 37.5301C39.2705 37.2749 38.6609 36.8638 38.1364 36.2825C37.6119 35.7013 37.3567 34.9216 37.3567 33.9292C37.3567 33.0644 37.5977 32.2847 38.0797 31.59C38.5617 30.8812 39.2847 30.3283 40.2346 29.9313C41.1986 29.5344 42.3469 29.3217 43.7221 29.3217C44.6577 29.3217 45.5792 29.421 46.4866 29.6194C47.3939 29.8179 48.1878 30.1156 48.8824 30.5126L47.4931 33.8583C46.1463 33.1778 44.8846 32.8376 43.6795 32.8376C42.4887 32.8376 41.9074 33.1211 41.9074 33.7024C41.9074 33.9717 42.0776 34.1844 42.432 34.312C42.7864 34.4537 43.3677 34.5955 44.1757 34.7514C45.2106 34.9499 46.0896 35.1768 46.8126 35.4319C47.5356 35.6871 48.1452 36.0982 48.684 36.6653C49.2085 37.2324 49.4779 38.0263 49.4779 39.0045C49.4779 39.8693 49.2369 40.649 48.7549 41.3437C48.2728 42.0383 47.5498 42.5912 46.6 43.0024C45.6359 43.4135 44.4876 43.612 43.1125 43.612C41.9783 43.5978 40.8867 43.4702 39.8093 43.215Z" fill="#2B6EC7"/>
<path d="M63.3567 29.6184V43.2849H58.7492V38.2521H54.4961V43.2849H49.8887V29.6184H54.4961V34.4669H58.7492V29.6184H63.3567Z" fill="#2B6EC7"/>
<path d="M67.8091 42.6895C66.6324 42.0799 65.7251 41.2293 65.0588 40.1376C64.3925 39.046 64.0664 37.8268 64.0664 36.4517C64.0664 35.0765 64.3925 33.8573 65.0588 32.7657C65.7251 31.6741 66.6466 30.8235 67.8091 30.2139C68.9858 29.6043 70.3042 29.2924 71.7786 29.2924C73.253 29.2924 74.5714 29.6043 75.7481 30.2139C76.9248 30.8235 77.8321 31.6741 78.4984 32.7657C79.1647 33.8573 79.4908 35.0765 79.4908 36.4517C79.4908 37.8268 79.1647 39.046 78.4984 40.1376C77.8321 41.2293 76.9106 42.0799 75.7481 42.6895C74.5714 43.2991 73.253 43.611 71.7786 43.611C70.3042 43.5968 68.9716 43.2991 67.8091 42.6895ZM73.3239 39.4572C73.7917 39.1736 74.1603 38.7767 74.4297 38.2663C74.699 37.7559 74.8408 37.1463 74.8408 36.4658C74.8408 35.7712 74.699 35.1758 74.4297 34.6654C74.1603 34.155 73.7917 33.7581 73.3239 33.4745C72.856 33.191 72.3457 33.0492 71.7644 33.0492C71.1974 33.0492 70.6728 33.191 70.205 33.4745C69.7371 33.7581 69.3685 34.155 69.0992 34.6654C68.8298 35.1758 68.688 35.7854 68.688 36.4658C68.688 37.1605 68.8298 37.7559 69.0992 38.2663C69.3685 38.7767 69.7371 39.1736 70.205 39.4572C70.6728 39.7407 71.1832 39.8825 71.7644 39.8825C72.3457 39.8683 72.856 39.7265 73.3239 39.4572Z" fill="#2B6EC7"/>
<path d="M90.0668 30.2422C91.0025 30.6534 91.7255 31.263 92.2359 32.0427C92.7462 32.8224 93.0014 33.7297 93.0014 34.7788C93.0014 35.8137 92.7462 36.7352 92.2359 37.515C91.7255 38.2947 91.0025 38.8901 90.0668 39.3154C89.1311 39.7265 88.0253 39.9392 86.7636 39.9392H84.793V43.2991H80.1855V29.6326H86.7636C88.0395 29.6185 89.1311 29.8311 90.0668 30.2422ZM87.8836 35.9555C88.1955 35.672 88.3514 35.275 88.3514 34.7788C88.3514 34.2826 88.1955 33.8715 87.8836 33.6022C87.5717 33.3186 87.1038 33.1769 86.4801 33.1769H84.8072V36.3808H86.4801C87.1038 36.3808 87.5717 36.239 87.8836 35.9555Z" fill="#2B6EC7"/>
<path d="M17.1536 37.4584C17.5931 38.0397 17.8199 38.7485 17.8199 39.5991C17.8199 40.8042 17.3521 41.7115 16.4164 42.3636C15.4808 43.0016 14.134 43.3276 12.3477 43.3276H5.27344V29.6612H11.9507C13.6236 29.6612 14.8995 29.9872 15.7926 30.6252C16.6858 31.2632 17.1253 32.1279 17.1253 33.2196C17.1253 33.8859 16.9693 34.4813 16.6433 34.9917C16.3172 35.5162 15.8777 35.9273 15.3106 36.225C16.1045 36.466 16.7141 36.8772 17.1536 37.4584ZM8.43487 32.0429V35.261H11.5821C12.3619 35.261 12.9573 35.1192 13.3542 34.8499C13.7512 34.5805 13.9638 34.1694 13.9638 33.6449C13.9638 33.1061 13.7654 32.7092 13.3542 32.4398C12.9573 32.1705 12.3619 32.0429 11.5821 32.0429H8.43487ZM14.0064 40.5348C14.4317 40.2654 14.6443 39.8401 14.6443 39.2589C14.6443 38.1247 13.8079 37.5577 12.1208 37.5577H8.43487V40.9317H12.1208C12.9573 40.9459 13.5811 40.8042 14.0064 40.5348Z" fill="white"/>
<path d="M25.5178 38.4788V43.3273H22.3563V38.4505L17.0684 29.6608H20.4283L24.0859 35.7285L27.7435 29.6608H30.8482L25.5178 38.4788Z" fill="white"/>
</g>
<defs>
<clipPath id="clip0_797_68899">
<rect width="93" height="43.3295" fill="white" transform="translate(0 0.835449)"/>
</clipPath>
</defs>
</svg>
