<svg width="7" height="7" viewBox="0 0 7 7" fill="none" xmlns="http://www.w3.org/2000/svg">
<path d="M6.59293 3.11542C6.54258 3.06465 6.48267 3.02435 6.41666 2.99685C6.35066 2.96935 6.27986 2.95519 6.20835 2.95519C6.13685 2.95519 6.06605 2.96935 6.00004 2.99685C5.93403 3.02435 5.87412 3.06465 5.82377 3.11542L4.04169 4.90292V0.791667C4.04169 0.648008 3.98462 0.510233 3.88303 0.408651C3.78145 0.307068 3.64368 0.25 3.50002 0.25C3.35636 0.25 3.21859 0.307068 3.117 0.408651C3.01542 0.510233 2.95835 0.648008 2.95835 0.791667V4.90292L1.17627 3.11542C1.07427 3.01342 0.935932 2.95612 0.791686 2.95612C0.647439 2.95612 0.5091 3.01342 0.407102 3.11542C0.305105 3.21741 0.247803 3.35575 0.247803 3.5C0.247803 3.64425 0.305105 3.78259 0.407102 3.88458L3.11544 6.59292C3.16695 6.64223 3.2277 6.68089 3.29419 6.70667C3.35902 6.73532 3.42913 6.75013 3.50002 6.75013C3.57091 6.75013 3.64101 6.73532 3.70585 6.70667C3.77234 6.68089 3.83309 6.64223 3.8846 6.59292L6.59293 3.88458C6.6437 3.83423 6.684 3.77432 6.7115 3.70831C6.739 3.64231 6.75316 3.57151 6.75316 3.5C6.75316 3.42849 6.739 3.35769 6.7115 3.29169C6.684 3.22568 6.6437 3.16577 6.59293 3.11542Z" fill="black"/>
</svg>
