<svg width="18" height="14" viewBox="0 0 18 14" fill="none" xmlns="http://www.w3.org/2000/svg">
<path d="M14.8327 0.333374H3.16602C2.50297 0.333374 1.86709 0.596766 1.39825 1.06561C0.929408 1.53445 0.666016 2.17033 0.666016 2.83337V11.1667C0.666016 11.8297 0.929408 12.4656 1.39825 12.9345C1.86709 13.4033 2.50297 13.6667 3.16602 13.6667H14.8327C15.4957 13.6667 16.1316 13.4033 16.6005 12.9345C17.0693 12.4656 17.3327 11.8297 17.3327 11.1667V2.83337C17.3327 2.17033 17.0693 1.53445 16.6005 1.06561C16.1316 0.596766 15.4957 0.333374 14.8327 0.333374ZM3.16602 12C2.945 12 2.73304 11.9122 2.57676 11.756C2.42048 11.5997 2.33268 11.3877 2.33268 11.1667V9.15004L5.08268 6.40837C5.23846 6.25568 5.44789 6.17016 5.66602 6.17016C5.88414 6.17016 6.09358 6.25568 6.24935 6.40837L11.841 12H3.16602ZM15.666 11.1667C15.666 11.3877 15.5782 11.5997 15.4219 11.756C15.2657 11.9122 15.0537 12 14.8327 12H14.191L11.016 8.80837L11.7493 8.07504C11.9051 7.92235 12.1146 7.83683 12.3327 7.83683C12.5508 7.83683 12.7602 7.92235 12.916 8.07504L15.666 10.8167V11.1667ZM15.666 8.46671L14.0993 6.90837C13.6244 6.45207 12.9913 6.19723 12.3327 6.19723C11.6741 6.19723 11.041 6.45207 10.566 6.90837L9.83268 7.64171L7.43268 5.24171C6.95773 4.7854 6.32465 4.53056 5.66602 4.53056C5.00739 4.53056 4.3743 4.7854 3.89935 5.24171L2.33268 6.80004V2.83337C2.33268 2.61236 2.42048 2.4004 2.57676 2.24412C2.73304 2.08784 2.945 2.00004 3.16602 2.00004H14.8327C15.0537 2.00004 15.2657 2.08784 15.4219 2.24412C15.5782 2.4004 15.666 2.61236 15.666 2.83337V8.46671Z" fill="#35A4D9"/>
</svg>
