<svg width="10" height="6" viewBox="0 0 10 6" fill="none" xmlns="http://www.w3.org/2000/svg">
<path d="M9.37166 0.742327C9.21553 0.587118 9.00432 0.5 8.78416 0.5C8.56401 0.5 8.3528 0.587118 8.19666 0.742327L5.20499 3.69233L2.25499 0.742327C2.09886 0.587118 1.88765 0.5 1.66749 0.5C1.44734 0.5 1.23613 0.587118 1.07999 0.742327C1.00189 0.819796 0.939892 0.911964 0.897585 1.01351C0.855278 1.11506 0.833496 1.22398 0.833496 1.33399C0.833496 1.444 0.855278 1.55293 0.897585 1.65447C0.939892 1.75602 1.00189 1.84819 1.07999 1.92566L4.61333 5.45899C4.6908 5.5371 4.78296 5.5991 4.88451 5.6414C4.98606 5.68371 5.09498 5.70549 5.20499 5.70549C5.315 5.70549 5.42393 5.68371 5.52548 5.6414C5.62702 5.5991 5.71919 5.5371 5.79666 5.45899L9.37166 1.92566C9.44977 1.84819 9.51176 1.75602 9.55407 1.65447C9.59638 1.55293 9.61816 1.444 9.61816 1.33399C9.61816 1.22398 9.59638 1.11506 9.55407 1.01351C9.51176 0.911964 9.44977 0.819796 9.37166 0.742327Z" fill="black"/>
</svg>
