<svg width="18" height="18" viewBox="0 0 18 18" fill="none" xmlns="http://www.w3.org/2000/svg">
<path d="M16.4994 8.16663C16.2783 8.16663 16.0664 8.25442 15.9101 8.4107C15.7538 8.56698 15.666 8.77894 15.666 8.99996C15.6759 10.5608 15.1413 12.0763 14.1541 13.2853C13.1669 14.4944 11.789 15.3214 10.2577 15.6238C8.72634 15.9262 7.1375 15.6852 5.76477 14.9423C4.39204 14.1993 3.32135 13.0009 2.73712 11.5535C2.15289 10.1061 2.09168 8.50022 2.56403 7.01252C3.03639 5.52482 4.01274 4.2484 5.32494 3.40311C6.63713 2.55781 8.20301 2.19655 9.7529 2.38155C11.3028 2.56655 12.7397 3.28622 13.816 4.41663H11.816C11.595 4.41663 11.383 4.50442 11.2268 4.6607C11.0705 4.81698 10.9827 5.02894 10.9827 5.24996C10.9827 5.47097 11.0705 5.68293 11.2268 5.83921C11.383 5.99549 11.595 6.08329 11.816 6.08329H15.591C15.812 6.08329 16.024 5.99549 16.1803 5.83921C16.3366 5.68293 16.4244 5.47097 16.4244 5.24996V1.49996C16.4244 1.27895 16.3366 1.06698 16.1803 0.910703C16.024 0.754423 15.812 0.666626 15.591 0.666626C15.37 0.666626 15.158 0.754423 15.0018 0.910703C14.8455 1.06698 14.7577 1.27895 14.7577 1.49996V2.97496C13.3699 1.64834 11.5666 0.841586 9.6527 0.691067C7.73876 0.540547 5.83154 1.0555 4.25345 2.14887C2.67536 3.24224 1.52319 4.84696 0.991708 6.69178C0.460225 8.5366 0.582026 10.5084 1.33652 12.2737C2.09102 14.0391 3.43194 15.4898 5.1326 16.3807C6.83326 17.2715 8.78935 17.5478 10.6702 17.1629C12.5511 16.7779 14.2413 15.7554 15.4553 14.268C16.6692 12.7807 17.3324 10.9198 17.3327 8.99996C17.3327 8.77894 17.2449 8.56698 17.0886 8.4107C16.9323 8.25442 16.7204 8.16663 16.4994 8.16663Z" fill="white"/>
</svg>
