<svg width="20" height="20" viewBox="0 0 20 20" fill="none" xmlns="http://www.w3.org/2000/svg">
<path d="M13.0919 6.9084C13.0144 6.83029 12.9222 6.7683 12.8207 6.72599C12.7191 6.68368 12.6102 6.6619 12.5002 6.6619C12.3902 6.6619 12.2813 6.68368 12.1797 6.72599C12.0782 6.7683 11.986 6.83029 11.9085 6.9084L10.0002 8.82507L8.09185 6.9084C7.93493 6.75148 7.72211 6.66332 7.50019 6.66332C7.27827 6.66332 7.06544 6.75148 6.90852 6.9084C6.7516 7.06532 6.66344 7.27815 6.66344 7.50007C6.66344 7.72198 6.7516 7.93481 6.90852 8.09173L8.82519 10.0001L6.90852 11.9084C6.83041 11.9859 6.76842 12.078 6.72611 12.1796C6.6838 12.2811 6.66202 12.3901 6.66202 12.5001C6.66202 12.6101 6.6838 12.719 6.72611 12.8205C6.76842 12.9221 6.83041 13.0143 6.90852 13.0917C6.98599 13.1698 7.07816 13.2318 7.17971 13.2741C7.28126 13.3164 7.39018 13.3382 7.50019 13.3382C7.6102 13.3382 7.71912 13.3164 7.82067 13.2741C7.92222 13.2318 8.01438 13.1698 8.09185 13.0917L10.0002 11.1751L11.9085 13.0917C11.986 13.1698 12.0782 13.2318 12.1797 13.2741C12.2813 13.3164 12.3902 13.3382 12.5002 13.3382C12.6102 13.3382 12.7191 13.3164 12.8207 13.2741C12.9222 13.2318 13.0144 13.1698 13.0919 13.0917C13.17 13.0143 13.232 12.9221 13.2743 12.8205C13.3166 12.719 13.3384 12.6101 13.3384 12.5001C13.3384 12.3901 13.3166 12.2811 13.2743 12.1796C13.232 12.078 13.17 11.9859 13.0919 11.9084L11.1752 10.0001L13.0919 8.09173C13.17 8.01426 13.232 7.9221 13.2743 7.82055C13.3166 7.719 13.3384 7.61008 13.3384 7.50007C13.3384 7.39006 13.3166 7.28113 13.2743 7.17958C13.232 7.07804 13.17 6.98587 13.0919 6.9084ZM15.8919 4.1084C15.1231 3.31248 14.2036 2.67763 13.1869 2.24089C12.1702 1.80415 11.0767 1.57426 9.9702 1.56465C8.8637 1.55503 7.76637 1.76588 6.74224 2.18489C5.7181 2.60389 4.78767 3.22267 4.00523 4.00511C3.22279 4.78755 2.60401 5.71798 2.18501 6.74212C1.766 7.76625 1.55515 8.86358 1.56477 9.97008C1.57438 11.0766 1.80427 12.1701 2.24101 13.1868C2.67775 14.2035 3.3126 15.123 4.10852 15.8917C4.87724 16.6876 5.79678 17.3225 6.81348 17.7592C7.83018 18.196 8.92368 18.4259 10.0302 18.4355C11.1367 18.4451 12.234 18.2343 13.2581 17.8152C14.2823 17.3962 15.2127 16.7775 15.9951 15.995C16.7776 15.2126 17.3964 14.2822 17.8154 13.258C18.2344 12.2339 18.4452 11.1365 18.4356 10.0301C18.426 8.92356 18.1961 7.83006 17.7594 6.81336C17.3226 5.79666 16.6878 4.87712 15.8919 4.1084ZM14.7169 14.7167C13.6269 15.8079 12.1923 16.4874 10.6575 16.6395C9.12273 16.7916 7.58269 16.4068 6.29979 15.5507C5.01689 14.6946 4.07049 13.4202 3.62183 11.9446C3.17318 10.469 3.25003 8.88352 3.83928 7.45822C4.42854 6.03292 5.49375 4.85602 6.85343 4.12803C8.21311 3.40005 9.78314 3.16601 11.296 3.46579C12.8089 3.76558 14.1711 4.58064 15.1504 5.77212C16.1297 6.96359 16.6656 8.45776 16.6669 10.0001C16.6698 10.8761 16.499 11.7441 16.1643 12.5537C15.8296 13.3633 15.3376 14.0985 14.7169 14.7167Z" fill="#DA0000"/>
</svg>
