<svg width="16" height="16" viewBox="0 0 16 16" fill="none" xmlns="http://www.w3.org/2000/svg">
<path d="M9.76194 7.99999L15.1369 2.63749C15.3723 2.40211 15.5045 2.08286 15.5045 1.74999C15.5045 1.41711 15.3723 1.09787 15.1369 0.862488C14.9016 0.627108 14.5823 0.494873 14.2494 0.494873C13.9166 0.494873 13.5973 0.627108 13.3619 0.862488L7.99944 6.23749L2.63694 0.862488C2.40156 0.627108 2.08231 0.494873 1.74944 0.494873C1.41656 0.494873 1.09732 0.627108 0.861935 0.862488C0.626556 1.09787 0.494321 1.41711 0.494321 1.74999C0.494321 2.08286 0.626556 2.40211 0.861935 2.63749L6.23694 7.99999L0.861935 13.3625C0.744775 13.4787 0.651782 13.6169 0.588321 13.7693C0.524861 13.9216 0.492188 14.085 0.492188 14.25C0.492188 14.415 0.524861 14.5784 0.588321 14.7307C0.651782 14.883 0.744775 15.0213 0.861935 15.1375C0.978139 15.2546 1.11639 15.3476 1.26871 15.4111C1.42104 15.4746 1.58442 15.5072 1.74944 15.5072C1.91445 15.5072 2.07783 15.4746 2.23016 15.4111C2.38248 15.3476 2.52073 15.2546 2.63694 15.1375L7.99944 9.76249L13.3619 15.1375C13.4781 15.2546 13.6164 15.3476 13.7687 15.4111C13.921 15.4746 14.0844 15.5072 14.2494 15.5072C14.4145 15.5072 14.5778 15.4746 14.7302 15.4111C14.8825 15.3476 15.0207 15.2546 15.1369 15.1375C15.2541 15.0213 15.3471 14.883 15.4106 14.7307C15.474 14.5784 15.5067 14.415 15.5067 14.25C15.5067 14.085 15.474 13.9216 15.4106 13.7693C15.3471 13.6169 15.2541 13.4787 15.1369 13.3625L9.76194 7.99999Z" fill="#DA0000"/>
</svg>
